<?xml version="1.0" encoding="UTF-8"?>
<svg width="60px" height="60px" viewBox="0 0 60 60" version="1.1" xmlns="http://www.w3.org/2000/svg" xmlns:xlink="http://www.w3.org/1999/xlink">
    <!-- Generator: sketchtool 52.6 (67491) - http://www.bohemiancoding.com/sketch -->
    <title>72AB7077-39FB-4C70-BE77-4A6979829B5F</title>
    <desc>Created with sketchtool.</desc>
    <g id="Final" stroke="none" stroke-width="1" fill="none" fill-rule="evenodd" stroke-linecap="round" stroke-linejoin="round">
        <g id="01_01-Desktop-" transform="translate(-1074.000000, -2486.000000)" stroke="#93C90E" stroke-width="3.75">
            <g id="Group-16" transform="translate(924.000000, 2488.000000)">
                <g id="ic_reliability" transform="translate(152.000000, 0.000000)">
                    <g id="notes-clock">
                        <ellipse id="Oval" cx="41.0503509" cy="41.0666667" rx="14.9274003" ry="14.9333333"></ellipse>
                        <polyline id="Shape" points="47.6482619 41.6938667 41.0503509 41.6938667 41.0503509 35.0933333"></polyline>
                        <path d="M18.6613703,48.5333333 L3.73396993,48.5333333 C2.73681497,48.5581803 1.77310501,48.1728324 1.0677913,47.4672383 C0.362477579,46.7616443 -0.0227172406,45.7975513 0.00211984056,44.8 L0.00211984056,7.73297778 C-0.0678099276,5.59891792 1.60100109,3.81035446 3.73396993,3.73333333 L41.0524708,3.73333333 C43.1854396,3.81035446 44.8542506,5.59891792 44.7843209,7.73297778 L44.7843209,18.6666667" id="Shape"></path>
                        <path d="M11.1955503,0 L11.1955503,11.2" id="Shape"></path>
                        <path d="M22.3911005,0 L22.3911005,11.2" id="Shape"></path>
                        <path d="M33.5866508,0 L33.5866508,11.2" id="Shape"></path>
                    </g>
                </g>
            </g>
        </g>
    </g>
</svg>