<?xml version="1.0" encoding="UTF-8"?>
<svg width="53px" height="60px" viewBox="0 0 53 60" version="1.1" xmlns="http://www.w3.org/2000/svg" xmlns:xlink="http://www.w3.org/1999/xlink">
    <!-- Generator: sketchtool 52.6 (67491) - http://www.bohemiancoding.com/sketch -->
    <title>D2053882-4AB4-4668-B6F5-F1711EA491CE</title>
    <desc>Created with sketchtool.</desc>
    <g id="Final" stroke="none" stroke-width="1" fill="none" fill-rule="evenodd" stroke-linecap="round" stroke-linejoin="round">
        <g id="01_01-Desktop-" transform="translate(-310.000000, -2484.000000)" stroke="#93C90E" stroke-width="3.75">
            <g id="Group-17" transform="translate(156.000000, 2486.000000)">
                <g id="ic_safety" transform="translate(156.000000, 0.000000)">
                    <g id="protection-shield-star">
                        <path d="M0.371963563,8.16175439 L0.371963563,26.862807 C0.372067657,38.9629678 7.89549613,49.8135437 19.2974696,54.1578947 L21.8788968,55.1403509 C23.597971,55.7952801 25.5012193,55.7952801 27.2202935,55.1403509 L29.8017206,54.1578947 C41.2036942,49.8135437 48.7271226,38.9629678 48.7272267,26.862807 L48.7272267,8.16175439 C48.7369344,6.72427987 47.8944173,5.41485627 46.5747976,4.81649123 C39.6310756,1.81456994 32.1256099,0.298813692 24.5495951,0.368421053 C16.9735804,0.298813692 9.46811469,1.81456994 2.52439271,4.81649123 C1.20477299,5.41485627 0.362255852,6.72427987 0.371963563,8.16175439 Z" id="Shape"></path>
                        <path d="M23.4684211,14.4764912 C23.673876,14.0717202 24.0921924,13.8162771 24.5495951,13.8162771 C25.0069979,13.8162771 25.4253143,14.0717202 25.6307692,14.4764912 L28.1402834,19.4894737 C28.3173016,19.8394013 28.6565741,20.0808736 29.0478745,20.1354386 L34.6818826,20.9435088 C35.1304477,21.0058377 35.5049005,21.3139589 35.6489879,21.7392982 C35.7904295,22.1634905 35.6737753,22.6304377 35.3489372,22.9403509 L31.2573381,26.8701754 C30.9780659,27.1368317 30.8499613,27.523002 30.9151316,27.9017544 L31.8797571,33.442807 C31.9559013,33.8850159 31.768759,34.3312175 31.3986842,34.5898246 C31.0260432,34.8517073 30.5367394,34.884902 30.1315283,34.6757895 L25.1125,32.077193 C24.7596601,31.8954489 24.3395302,31.8954489 23.9866903,32.077193 L18.9676619,34.6782456 C18.5624508,34.8873582 18.073147,34.8541634 17.7005061,34.5922807 C17.3304313,34.3336737 17.143289,33.887472 17.2194332,33.4452632 L18.1840587,27.9042105 C18.249229,27.5254582 18.1211244,27.1392878 17.8418522,26.8726316 L13.750253,22.942807 C13.425415,22.6328939 13.3087608,22.1659467 13.4502024,21.7417544 C13.5947867,21.3167524 13.9689864,21.0088395 14.4173077,20.9459649 L20.0537955,20.1403509 C20.4441762,20.0850299 20.7823729,19.8436638 20.9589069,19.494386 L23.4684211,14.4764912 Z" id="Shape"></path>
                    </g>
                </g>
            </g>
        </g>
    </g>
</svg>