<?xml version="1.0" encoding="UTF-8"?>
<svg width="48px" height="64px" viewBox="0 0 48 64" version="1.1" xmlns="http://www.w3.org/2000/svg" xmlns:xlink="http://www.w3.org/1999/xlink">
    <!-- Generator: sketchtool 52.6 (67491) - http://www.bohemiancoding.com/sketch -->
    <title>26074B0B-09B4-4EA8-96F9-849EE2702C19</title>
    <desc>Created with sketchtool.</desc>
    <g id="Final" stroke="none" stroke-width="1" fill="none" fill-rule="evenodd" stroke-linecap="round" stroke-linejoin="round">
        <g id="01_01-Desktop-" transform="translate(-697.000000, -2482.000000)" stroke="#93C90E" stroke-width="3.75">
            <g id="Group-13" transform="translate(540.000000, 2484.000000)">
                <g id="ic_transparency" transform="translate(159.000000, 0.000000)">
                    <g id="phone-action-navigation-pin">
                        <path d="M31.7930419,39.8684211 L31.7930419,52.4157895 C31.7930421,54.3230125 31.0395021,56.1520822 29.6982657,57.5004457 C28.3570292,58.8488092 26.5380176,59.6059613 24.64157,59.6052632 L7.54397859,59.6052632 C5.64753098,59.6059613 3.82851937,58.8488092 2.48728296,57.5004457 C1.14604655,56.1520822 0.392506563,54.3230125 0.39250669,52.4157895 L0.39250669,11.5342105 C0.39250669,7.56212047 3.59432972,4.34210526 7.54397859,4.34210526 L14.1302409,4.34210526" id="Shape"></path>
                        <path d="M0.39250669,47.7631579 L31.7930419,47.7631579" id="Shape"></path>
                        <path d="M31.7930419,11.25 C31.2511033,11.25 30.8117752,11.6918243 30.8117752,12.2368421 C30.8117752,12.78186 31.2511033,13.2236842 31.7930419,13.2236842 C32.3349806,13.2236842 32.7743087,12.78186 32.7743087,12.2368421 C32.7743087,11.6918243 32.3349806,11.25 31.7930419,11.25" id="Shape"></path>
                        <path d="M31.7930419,0.394736842 C38.2963057,0.394736842 43.5682426,5.69662796 43.5682426,12.2368421 C43.5682426,17.2921053 36.5345227,26.9105263 33.3395183,31.0210526 C32.9675868,31.4997908 32.3971453,31.7795883 31.7930419,31.7795883 C31.1889386,31.7795883 30.618497,31.4997908 30.2465656,31.0210526 C27.0515611,26.9131579 20.0178412,17.2921053 20.0178412,12.2368421 C20.0178412,5.69662796 25.2897781,0.394736842 31.7930419,0.394736842 Z" id="Shape"></path>
                    </g>
                </g>
            </g>
        </g>
    </g>
</svg>